<?xml version="1.0" encoding="UTF-8"?>
<svg xmlns="http://www.w3.org/2000/svg" xmlns:xlink="http://www.w3.org/1999/xlink" viewBox="0 0 80 80" width="80px" height="80px">
<g id="surface32089895">
<path style=" stroke:none;fill-rule:nonzero;fill:rgb(100%,100%,100%);fill-opacity:1;" d="M 37.996094 8 C 36.902344 8 35.996094 8.90625 35.996094 10 C 25.511719 10 16.996094 18.519531 16.996094 29 L 16.996094 32.800781 L 6.414062 58.453125 C 5.421875 60.785156 6.273438 63.519531 8.433594 64.859375 C 8.828125 65.105469 9.507812 65.484375 9.507812 65.484375 L 10.433594 66 L 10.4375 66.003906 L 10.441406 66 C 15.496094 66 20.464844 66.394531 24.804688 66.988281 L 22.457031 64.683594 C 18.851562 64.285156 15.058594 64.050781 11.382812 64.015625 C 12.117188 62.457031 17.488281 51.109375 21.828125 42.1875 C 23.523438 38.707031 24.921875 36.628906 26.230469 35.476562 C 27.535156 34.324219 28.722656 34 30.46875 34 C 33.445312 34 36.28125 36.703125 36.28125 36.703125 L 36.578125 37 L 43.40625 37 L 43.703125 36.703125 C 43.703125 36.703125 46.542969 34 49.519531 34 C 51.265625 34 52.453125 34.324219 53.757812 35.476562 C 55.0625 36.628906 56.460938 38.707031 58.15625 42.1875 C 62.5 51.109375 67.878906 62.464844 68.613281 64.015625 C 64.941406 64.050781 61.148438 64.285156 57.546875 64.683594 L 55.199219 66.988281 C 59.539062 66.394531 64.503906 66 69.5625 66 L 69.5625 65.996094 L 70.488281 65.480469 C 70.488281 65.480469 71.164062 65.105469 71.558594 64.859375 L 71.5625 64.859375 C 73.722656 63.519531 74.570312 60.785156 73.578125 58.453125 L 63 32.800781 L 63 29 C 63 18.519531 54.480469 10 44 10 C 44 8.90625 43.09375 8 42 8 Z M 37.996094 10 L 42 10 L 42 12 L 44 12 C 53.402344 12 61 19.597656 61 29 L 61 31 C 60.449219 31 60 31.449219 60 32 C 60 32.550781 60.449219 33 61 33 L 61 33.199219 L 71.738281 59.226562 L 71.738281 59.234375 C 72.355469 60.679688 71.835938 62.335938 70.507812 63.160156 C 70.488281 63.171875 70.460938 63.1875 70.4375 63.203125 C 69.9375 62.140625 64.410156 50.464844 59.953125 41.3125 C 58.210938 37.730469 56.738281 35.4375 55.078125 33.976562 C 53.421875 32.515625 51.5625 32 49.519531 32 C 47.132812 32 45.207031 33.019531 43.992188 33.886719 C 43.933594 33.382812 43.507812 33 43 33 C 42.449219 33 42 33.449219 42 34 C 42 34.4375 42.289062 34.828125 42.707031 34.953125 C 42.699219 34.964844 42.664062 34.992188 42.65625 35 L 37.328125 35 C 37.324219 34.992188 37.292969 34.96875 37.28125 34.957031 C 37.707031 34.832031 38 34.441406 38 34 C 38 33.449219 37.550781 33 37 33 C 36.488281 33 36.058594 33.386719 36.003906 33.894531 C 34.789062 33.027344 32.859375 32 30.46875 32 C 28.425781 32 26.5625 32.515625 24.90625 33.976562 C 23.25 35.4375 21.773438 37.730469 20.03125 41.3125 C 15.578125 50.464844 10.0625 62.140625 9.558594 63.203125 C 9.535156 63.1875 9.507812 63.175781 9.484375 63.160156 C 8.15625 62.339844 7.640625 60.679688 8.253906 59.234375 L 8.257812 59.230469 L 18.996094 33.199219 L 18.996094 33 C 19.546875 33 19.996094 32.550781 19.996094 32 C 19.996094 31.449219 19.546875 31 18.996094 31 L 18.996094 29 C 18.996094 19.597656 26.59375 12 35.996094 12 L 37.996094 12 Z M 37 13 C 36.449219 13 36 13.449219 36 14 C 36 14.550781 36.449219 15 37 15 C 37.550781 15 38 14.550781 38 14 C 38 13.449219 37.550781 13 37 13 Z M 43 13 C 42.449219 13 42 13.449219 42 14 C 42 14.550781 42.449219 15 43 15 C 43.550781 15 44 14.550781 44 14 C 44 13.449219 43.550781 13 43 13 Z M 37 17 C 36.449219 17 36 17.449219 36 18 C 36 18.550781 36.449219 19 37 19 C 37.550781 19 38 18.550781 38 18 C 38 17.449219 37.550781 17 37 17 Z M 43 17 C 42.449219 17 42 17.449219 42 18 C 42 18.550781 42.449219 19 43 19 C 43.550781 19 44 18.550781 44 18 C 44 17.449219 43.550781 17 43 17 Z M 37 21 C 36.449219 21 36 21.449219 36 22 C 36 22.550781 36.449219 23 37 23 C 37.550781 23 38 22.550781 38 22 C 38 21.449219 37.550781 21 37 21 Z M 43 21 C 42.449219 21 42 21.449219 42 22 C 42 22.550781 42.449219 23 43 23 C 43.550781 23 44 22.550781 44 22 C 44 21.449219 43.550781 21 43 21 Z M 37 25 C 36.449219 25 36 25.449219 36 26 C 36 26.550781 36.449219 27 37 27 C 37.550781 27 38 26.550781 38 26 C 38 25.449219 37.550781 25 37 25 Z M 43 25 C 42.449219 25 42 25.449219 42 26 C 42 26.550781 42.449219 27 43 27 C 43.550781 27 44 26.550781 44 26 C 44 25.449219 43.550781 25 43 25 Z M 25.996094 27 C 25.441406 27 24.996094 27.449219 24.996094 28 C 24.996094 28.550781 25.441406 29 25.996094 29 C 26.546875 29 26.996094 28.550781 26.996094 28 C 26.996094 27.449219 26.546875 27 25.996094 27 Z M 29.996094 27 C 29.441406 27 28.996094 27.449219 28.996094 28 C 28.996094 28.550781 29.441406 29 29.996094 29 C 30.546875 29 30.996094 28.550781 30.996094 28 C 30.996094 27.449219 30.546875 27 29.996094 27 Z M 50 27 C 49.449219 27 49 27.449219 49 28 C 49 28.550781 49.449219 29 50 29 C 50.550781 29 51 28.550781 51 28 C 51 27.449219 50.550781 27 50 27 Z M 54 27 C 53.449219 27 53 27.449219 53 28 C 53 28.550781 53.449219 29 54 29 C 54.550781 29 55 28.550781 55 28 C 55 27.449219 54.550781 27 54 27 Z M 21.996094 28 C 21.441406 28 20.996094 28.449219 20.996094 29 C 20.996094 29.550781 21.441406 30 21.996094 30 C 22.546875 30 22.996094 29.550781 22.996094 29 C 22.996094 28.449219 22.546875 28 21.996094 28 Z M 58 28 C 57.449219 28 57 28.449219 57 29 C 57 29.550781 57.449219 30 58 30 C 58.550781 30 59 29.550781 59 29 C 59 28.449219 58.550781 28 58 28 Z M 37 29 C 36.449219 29 36 29.449219 36 30 C 36 30.550781 36.449219 31 37 31 C 37.550781 31 38 30.550781 38 30 C 38 29.449219 37.550781 29 37 29 Z M 43 29 C 42.449219 29 42 29.449219 42 30 C 42 30.550781 42.449219 31 43 31 C 43.550781 31 44 30.550781 44 30 C 44 29.449219 43.550781 29 43 29 Z M 32 37 C 26.464844 37 24.105469 41.550781 24.105469 41.550781 L 24 41.765625 L 24 44 C 24 46.199219 25.800781 48 28 48 L 36.144531 48 C 36.058594 48.320312 36 48.652344 36 49 L 36 51.578125 L 28.277344 59.15625 L 24.914062 51.59375 C 24.75 51.214844 24.375 50.972656 23.960938 50.988281 C 23.625 51 23.320312 51.175781 23.144531 51.460938 C 22.96875 51.746094 22.945312 52.101562 23.085938 52.40625 L 26.863281 60.90625 C 26.332031 61.449219 26 62.1875 26 63 C 26 64.644531 27.355469 66 29 66 C 29.550781 66 30.058594 65.839844 30.5 65.578125 L 39.296875 74.222656 C 39.6875 74.605469 40.3125 74.605469 40.703125 74.222656 L 49.5 65.578125 C 49.941406 65.839844 50.453125 66 51 66 C 52.644531 66 54 64.644531 54 63 C 54 62.1875 53.667969 61.449219 53.136719 60.90625 L 56.914062 52.40625 C 57.058594 52.097656 57.03125 51.738281 56.851562 51.449219 C 56.667969 51.160156 56.351562 50.988281 56.011719 50.984375 C 55.609375 50.984375 55.242188 51.222656 55.085938 51.59375 L 51.722656 59.15625 L 44 51.578125 L 44 49 C 44 48.652344 43.941406 48.320312 43.855469 48 L 52 48 C 54.199219 48 56 46.199219 56 44 L 56 41.765625 L 55.894531 41.550781 C 55.894531 41.550781 53.535156 37 48 37 C 46.667969 37 45.46875 37.636719 44.472656 38.488281 C 43.480469 39.34375 42.664062 40.433594 42.105469 41.550781 L 42 41.765625 L 42 45.5625 C 41.410156 45.214844 40.730469 45 40 45 C 39.269531 45 38.589844 45.214844 38 45.5625 L 38 41.765625 L 37.894531 41.550781 C 37.335938 40.433594 36.519531 39.34375 35.527344 38.488281 C 34.53125 37.636719 33.332031 37 32 37 Z M 32 39 C 32.667969 39 33.46875 39.363281 34.222656 40.011719 C 34.9375 40.621094 35.558594 41.476562 36 42.3125 L 36 46 L 28 46 C 26.882812 46 26 45.117188 26 44 L 26 42.3125 C 26.121094 42.070312 27.703125 39 32 39 Z M 48 39 C 52.296875 39 53.878906 42.070312 54 42.3125 L 54 44 C 54 45.117188 53.117188 46 52 46 L 44 46 L 44 42.3125 C 44.441406 41.476562 45.0625 40.621094 45.777344 40.011719 C 46.53125 39.363281 47.332031 39 48 39 Z M 40 47 C 41.117188 47 42 47.882812 42 49 L 42 51 L 38 51 L 38 49 C 38 47.882812 38.882812 47 40 47 Z M 39 53 L 41 53 L 41 62 L 39 62 Z M 37 53.402344 L 37 62 L 35 62 L 35 55.441406 L 34.921875 55.441406 Z M 43 53.402344 L 45.078125 55.441406 L 45 55.441406 L 45 62 L 43 62 Z M 33 57.324219 L 33 62 L 31.8125 62 C 31.515625 61.179688 30.871094 60.523438 30.0625 60.207031 Z M 47 57.324219 L 49.9375 60.207031 C 49.125 60.519531 48.484375 61.175781 48.1875 62 L 47 62 Z M 29 62 C 29.5625 62 30 62.4375 30 63 C 30 63.5625 29.5625 64 29 64 C 28.4375 64 28 63.5625 28 63 C 28 62.4375 28.4375 62 29 62 Z M 51 62 C 51.5625 62 52 62.4375 52 63 C 52 63.5625 51.5625 64 51 64 C 50.4375 64 50 63.5625 50 63 C 50 62.4375 50.4375 62 51 62 Z M 31.8125 64 L 48.1875 64 C 48.191406 64.015625 48.195312 64.03125 48.203125 64.046875 L 40 72.109375 L 31.792969 64.042969 C 31.796875 64.027344 31.808594 64.015625 31.8125 64 Z M 31.8125 64 "/>
</g>
</svg>
